/videos/0b81d21e-accc-1249-d3bf-1497d1ae5200/hls1/main/16.ts

{"Protocol":0,"Id":"0b81d21eaccc1249d3bf1497d1ae5200","Path":"/data/movies/Star Wars Episode II - Attack of the Clones (2002)/Star Wars Episode II - Attack of the Clones (2002) WEBDL-2160p.mkv","EncoderPath":null,"EncoderProtocol":null,"Type":0,"Container":"mkv,webm","Size":13941249024,"Name":"Star Wars Episode II - Attack of the Clones (2002) WEBDL-2160p","IsRemote":false,"ETag":"323645eda2a3c06a92880e8f64cab315","RunTimeTicks":85539209216,"ReadAtNativeFramerate":false,"IgnoreDts":false,"IgnoreIndex":false,"GenPtsInput":false,"SupportsTranscoding":true,"SupportsDirectStream":true,"SupportsDirectPlay":true,"IsInfiniteStream":false,"RequiresOpening":false,"OpenToken":null,"RequiresClosing":false,"LiveStreamId":null,"BufferMs":null,"RequiresLooping":false,"SupportsProbing":true,"VideoType":0,"IsoType":null,"Video3DFormat":null,"MediaStreams":[{"Codec":"hevc","CodecTag":null,"Language":null,"ColorRange":null,"ColorSpace":"bt2020nc","ColorTransfer":"smpte2084","ColorPrimaries":"bt2020","DvVersionMajor":null,"DvVersionMinor":null,"DvProfile":null,"DvLevel":null,"RpuPresentFlag":null,"ElPresentFlag":null,"BlPresentFlag":null,"DvBlSignalCompatibilityId":null,"Comment":null,"TimeBase":"1/1000","CodecTimeBase":null,"Title":null,"VideoRange":"HDR","VideoRangeType":"HDR10","VideoDoViTitle":null,"LocalizedUndefined":null,"LocalizedDefault":null,"LocalizedForced":null,"LocalizedExternal":null,"DisplayTitle":"4K HEVC HDR","NalLengthSize":null,"IsInterlaced":false,"IsAVC":null,"ChannelLayout":null,"BitRate":13038464,"BitDepth":10,"RefFrames":1,"PacketLength":null,"Channels":null,"SampleRate":null,"IsDefault":true,"IsForced":false,"Height":1608,"Width":3840,"AverageFrameRate":23.976025,"RealFrameRate":23.976025,"Profile":"Main 10","Type":1,"AspectRatio":"2.40:1","Index":0,"Score":null,"IsExternal":false,"DeliveryMethod":null,"DeliveryUrl":null,"IsExternalUrl":null,"IsTextSubtitleStream":false,"SupportsExternalStream":false,"Path":null,"PixelFormat":"yuv420p10le","Level":150,"IsAnamorphic":null},{"Codec":"eac3","CodecTag":null,"Language":"eng","ColorRange":null,"ColorSpace":null,"ColorTransfer":null,"ColorPrimaries":null,"DvVersionMajor":null,"DvVersionMinor":null,"DvProfile":null,"DvLevel":null,"RpuPresentFlag":null,"ElPresentFlag":null,"BlPresentFlag":null,"DvBlSignalCompatibilityId":null,"Comment":null,"TimeBase":"1/1000","CodecTimeBase":null,"Title":null,"VideoRange":null,"VideoRangeType":null,"VideoDoViTitle":null,"LocalizedUndefined":null,"LocalizedDefault":null,"LocalizedForced":null,"LocalizedExternal":null,"DisplayTitle":"English - Dolby Digital\u002B - 5.1","NalLengthSize":null,"IsInterlaced":false,"IsAVC":null,"ChannelLayout":"5.1","BitRate":320000,"BitDepth":null,"RefFrames":null,"PacketLength":null,"Channels":6,"SampleRate":48000,"IsDefault":false,"IsForced":false,"Height":null,"Width":null,"AverageFrameRate":null,"RealFrameRate":null,"Profile":null,"Type":0,"AspectRatio":null,"Index":1,"Score":null,"IsExternal":false,"DeliveryMethod":null,"DeliveryUrl":null,"IsExternalUrl":null,"IsTextSubtitleStream":false,"SupportsExternalStream":false,"Path":null,"PixelFormat":null,"Level":0,"IsAnamorphic":null},{"Codec":"ac3","CodecTag":null,"Language":"ita","ColorRange":null,"ColorSpace":null,"ColorTransfer":null,"ColorPrimaries":null,"DvVersionMajor":null,"DvVersionMinor":null,"DvProfile":null,"DvLevel":null,"RpuPresentFlag":null,"ElPresentFlag":null,"BlPresentFlag":null,"DvBlSignalCompatibilityId":null,"Comment":null,"TimeBase":"1/1000","CodecTimeBase":null,"Title":null,"VideoRange":null,"VideoRangeType":null,"VideoDoViTitle":null,"LocalizedUndefined":null,"LocalizedDefault":null,"LocalizedForced":null,"LocalizedExternal":null,"DisplayTitle":"Italian - Dolby Digital - 5.1 - Default","NalLengthSize":null,"IsInterlaced":false,"IsAVC":null,"ChannelLayout":"5.1","BitRate":448000,"BitDepth":null,"RefFrames":null,"PacketLength":null,"Channels":6,"SampleRate":48000,"IsDefault":true,"IsForced":false,"Height":null,"Width":null,"AverageFrameRate":null,"RealFrameRate":null,"Profile":null,"Type":0,"AspectRatio":null,"Index":2,"Score":null,"IsExternal":false,"DeliveryMethod":null,"DeliveryUrl":null,"IsExternalUrl":null,"IsTextSubtitleStream":false,"SupportsExternalStream":false,"Path":null,"PixelFormat":null,"Level":0,"IsAnamorphic":null},{"Codec":"ass","CodecTag":null,"Language":"eng","ColorRange":null,"ColorSpace":null,"ColorTransfer":null,"ColorPrimaries":null,"DvVersionMajor":null,"DvVersionMinor":null,"DvProfile":null,"DvLevel":null,"RpuPresentFlag":null,"ElPresentFlag":null,"BlPresentFlag":null,"DvBlSignalCompatibilityId":null,"Comment":null,"TimeBase":"1/1000","CodecTimeBase":null,"Title":"Forced","VideoRange":null,"VideoRangeType":null,"VideoDoViTitle":null,"LocalizedUndefined":"Undefined","LocalizedDefault":"Default","LocalizedForced":"Forced","LocalizedExternal":"External","DisplayTitle":"Forced - English - ASS","NalLengthSize":null,"IsInterlaced":false,"IsAVC":null,"ChannelLayout":null,"BitRate":null,"BitDepth":null,"RefFrames":null,"PacketLength":null,"Channels":null,"SampleRate":null,"IsDefault":false,"IsForced":false,"Height":null,"Width":null,"AverageFrameRate":null,"RealFrameRate":null,"Profile":null,"Type":2,"AspectRatio":null,"Index":3,"Score":null,"IsExternal":false,"DeliveryMethod":null,"DeliveryUrl":null,"IsExternalUrl":null,"IsTextSubtitleStream":true,"SupportsExternalStream":true,"Path":null,"PixelFormat":null,"Level":0,"IsAnamorphic":null},{"Codec":"ass","CodecTag":null,"Language":"ita","ColorRange":null,"ColorSpace":null,"ColorTransfer":null,"ColorPrimaries":null,"DvVersionMajor":null,"DvVersionMinor":null,"DvProfile":null,"DvLevel":null,"RpuPresentFlag":null,"ElPresentFlag":null,"BlPresentFlag":null,"DvBlSignalCompatibilityId":null,"Comment":null,"TimeBase":"1/1000","CodecTimeBase":null,"Title":null,"VideoRange":null,"VideoRangeType":null,"VideoDoViTitle":null,"LocalizedUndefined":"Undefined","LocalizedDefault":"Default","LocalizedForced":"Forced","LocalizedExternal":"External","DisplayTitle":"Italian - ASS","NalLengthSize":null,"IsInterlaced":false,"IsAVC":null,"ChannelLayout":null,"BitRate":null,"BitDepth":null,"RefFrames":null,"PacketLength":null,"Channels":null,"SampleRate":null,"IsDefault":false,"IsForced":false,"Height":null,"Width":null,"AverageFrameRate":null,"RealFrameRate":null,"Profile":null,"Type":2,"AspectRatio":null,"Index":4,"Score":null,"IsExternal":false,"DeliveryMethod":null,"DeliveryUrl":null,"IsExternalUrl":null,"IsTextSubtitleStream":true,"SupportsExternalStream":true,"Path":null,"PixelFormat":null,"Level":0,"IsAnamorphic":null},{"Codec":"ass","CodecTag":null,"Language":"eng","ColorRange":null,"ColorSpace":null,"ColorTransfer":null,"ColorPrimaries":null,"DvVersionMajor":null,"DvVersionMinor":null,"DvProfile":null,"DvLevel":null,"RpuPresentFlag":null,"ElPresentFlag":null,"BlPresentFlag":null,"DvBlSignalCompatibilityId":null,"Comment":null,"TimeBase":"1/1000","CodecTimeBase":null,"Title":null,"VideoRange":null,"VideoRangeType":null,"VideoDoViTitle":null,"LocalizedUndefined":"Undefined","LocalizedDefault":"Default","LocalizedForced":"Forced","LocalizedExternal":"External","DisplayTitle":"English - ASS","NalLengthSize":null,"IsInterlaced":false,"IsAVC":null,"ChannelLayout":null,"BitRate":null,"BitDepth":null,"RefFrames":null,"PacketLength":null,"Channels":null,"SampleRate":null,"IsDefault":false,"IsForced":false,"Height":null,"Width":null,"AverageFrameRate":null,"RealFrameRate":null,"Profile":null,"Type":2,"AspectRatio":null,"Index":5,"Score":null,"IsExternal":false,"DeliveryMethod":null,"DeliveryUrl":null,"IsExternalUrl":null,"IsTextSubtitleStream":true,"SupportsExternalStream":true,"Path":null,"PixelFormat":null,"Level":0,"IsAnamorphic":null},{"Codec":"subrip","CodecTag":null,"Language":"ita","ColorRange":null,"ColorSpace":null,"ColorTransfer":null,"ColorPrimaries":null,"DvVersionMajor":null,"DvVersionMinor":null,"DvProfile":null,"DvLevel":null,"RpuPresentFlag":null,"ElPresentFlag":null,"BlPresentFlag":null,"DvBlSignalCompatibilityId":null,"Comment":null,"TimeBase":"1/1000","CodecTimeBase":null,"Title":"Forced","VideoRange":null,"VideoRangeType":null,"VideoDoViTitle":null,"LocalizedUndefined":"Undefined","LocalizedDefault":"Default","LocalizedForced":"Forced","LocalizedExternal":"External","DisplayTitle":"Forced - Italian - Default - SUBRIP","NalLengthSize":null,"IsInterlaced":false,"IsAVC":null,"ChannelLayout":null,"BitRate":null,"BitDepth":null,"RefFrames":null,"PacketLength":null,"Channels":null,"SampleRate":null,"IsDefault":true,"IsForced":false,"Height":null,"Width":null,"AverageFrameRate":null,"RealFrameRate":null,"Profile":null,"Type":2,"AspectRatio":null,"Index":6,"Score":null,"IsExternal":false,"DeliveryMethod":null,"DeliveryUrl":null,"IsExternalUrl":null,"IsTextSubtitleStream":true,"SupportsExternalStream":true,"Path":null,"PixelFormat":null,"Level":0,"IsAnamorphic":null}],"MediaAttachments":[],"Formats":[],"Bitrate":13806464,"Timestamp":null,"RequiredHttpHeaders":{},"TranscodingUrl":null,"TranscodingSubProtocol":null,"TranscodingContainer":null,"AnalyzeDurationMs":null,"DefaultAudioStreamIndex":null,"DefaultSubtitleStreamIndex":null}

/usr/lib/jellyfin-ffmpeg/ffmpeg -analyzeduration 200M -ss 00:02:22.726 -fflags +genpts -f matroska,webm  -i file:"/data/movies/Star Wars Episode II - Attack of the Clones (2002)/Star Wars Episode II - Attack of the Clones (2002) WEBDL-2160p.mkv" -map_metadata -1 -map_chapters -1 -threads 0 -map 0:0 -map 0:1 -codec:v:0 copy -tag:v:0 hvc1 -bsf:v hevc_mp4toannexb -start_at_zero -codec:a:0 copy -copyts -avoid_negative_ts disabled -max_muxing_queue_size 2048 -f hls -max_delay 5000000 -hls_time 6 -hls_segment_type mpegts -start_number 16 -hls_segment_filename "/config/data/transcodes/8d5add41d5d8ae313c2e1d641e06dbf3%d.ts" -hls_playlist_type vod -hls_list_size 0 -y "/config/data/transcodes/8d5add41d5d8ae313c2e1d641e06dbf3.m3u8"


ffmpeg version 5.1.3-Jellyfin Copyright (c) 2000-2022 the FFmpeg developers
  built with gcc 11 (Ubuntu 11.3.0-1ubuntu1~22.04.1)
  configuration: --prefix=/usr/lib/jellyfin-ffmpeg --target-os=linux --extra-libs=-lfftw3f --extra-version=Jellyfin --disable-doc --disable-ffplay --disable-ptx-compression --disable-static --disable-libxcb --disable-sdl2 --disable-xlib --enable-lto --enable-gpl --enable-version3 --enable-shared --enable-gmp --enable-gnutls --enable-chromaprint --enable-libdrm --enable-libass --enable-libfreetype --enable-libfribidi --enable-libfontconfig --enable-libbluray --enable-libmp3lame --enable-libopus --enable-libtheora --enable-libvorbis --enable-libopenmpt --enable-libdav1d --enable-libwebp --enable-libvpx --enable-libx264 --enable-libx265 --enable-libzvbi --enable-libzimg --enable-libfdk-aac --arch=amd64 --enable-libsvtav1 --enable-libshaderc --enable-libplacebo --enable-vulkan --enable-opencl --enable-vaapi --enable-amf --enable-libmfx --enable-ffnvcodec --enable-cuda --enable-cuda-llvm --enable-cuvid --enable-nvdec --enable-nvenc
  libavutil      57. 28.100 / 57. 28.100
  libavcodec     59. 37.100 / 59. 37.100
  libavformat    59. 27.100 / 59. 27.100
  libavdevice    59.  7.100 / 59.  7.100
  libavfilter     8. 44.100 /  8. 44.100
  libswscale      6.  7.100 /  6.  7.100
  libswresample   4.  7.100 /  4.  7.100
  libpostproc    56.  6.100 / 56.  6.100
Input #0, matroska,webm, from 'file:/data/movies/Star Wars Episode II - Attack of the Clones (2002)/Star Wars Episode II - Attack of the Clones (2002) WEBDL-2160p.mkv':
  Metadata:
    title           : Star.Wars.Episode.II.Attack.of.the.Clones 4K
    encoder         : libebml v1.3.9 + libmatroska v1.5.2
    creation_time   : 2019-12-20T18:54:56.000000Z
  Duration: 02:22:33.92, start: 0.000000, bitrate: 13038 kb/s
  Stream #0:0: Video: hevc (Main 10), yuv420p10le(tv, bt2020nc/bt2020/smpte2084), 3840x1608, SAR 1:1 DAR 160:67, 23.98 fps, 23.98 tbr, 1k tbn (default)
    Metadata:
      BPS-eng         : 12268579
      DURATION-eng    : 02:22:33.921000000
      NUMBER_OF_FRAMES-eng: 205089
      NUMBER_OF_BYTES-eng: 13118057703
      _STATISTICS_WRITING_APP-eng: mkvmerge v40.0.0 ('Old Town Road + Pony') 32-bit
      _STATISTICS_WRITING_DATE_UTC-eng: 2019-12-20 18:54:56
      _STATISTICS_TAGS-eng: BPS DURATION NUMBER_OF_FRAMES NUMBER_OF_BYTES
  Stream #0:1(eng): Audio: eac3, 48000 Hz, 5.1(side), fltp, 320 kb/s
    Metadata:
      BPS-eng         : 320000
      DURATION-eng    : 02:22:27.904000000
      NUMBER_OF_FRAMES-eng: 267122
      NUMBER_OF_BYTES-eng: 341916160
      _STATISTICS_WRITING_APP-eng: mkvmerge v40.0.0 ('Old Town Road + Pony') 32-bit
      _STATISTICS_WRITING_DATE_UTC-eng: 2019-12-20 18:54:56
      _STATISTICS_TAGS-eng: BPS DURATION NUMBER_OF_FRAMES NUMBER_OF_BYTES
  Stream #0:2(ita): Audio: ac3, 48000 Hz, 5.1(side), fltp, 448 kb/s (default)
    Metadata:
      BPS-eng         : 448000
      DURATION-eng    : 02:22:27.904000000
      NUMBER_OF_FRAMES-eng: 267122
      NUMBER_OF_BYTES-eng: 478682624
      _STATISTICS_WRITING_APP-eng: mkvmerge v40.0.0 ('Old Town Road + Pony') 32-bit
      _STATISTICS_WRITING_DATE_UTC-eng: 2019-12-20 18:54:56
      _STATISTICS_TAGS-eng: BPS DURATION NUMBER_OF_FRAMES NUMBER_OF_BYTES
  Stream #0:3(eng): Subtitle: ass
    Metadata:
      title           : Forced
      BPS-eng         : 0
      DURATION-eng    : 02:17:14.560000000
      NUMBER_OF_FRAMES-eng: 17
      NUMBER_OF_BYTES-eng: 916
      _STATISTICS_WRITING_APP-eng: mkvmerge v40.0.0 ('Old Town Road + Pony') 32-bit
      _STATISTICS_WRITING_DATE_UTC-eng: 2019-12-20 18:54:56
      _STATISTICS_TAGS-eng: BPS DURATION NUMBER_OF_FRAMES NUMBER_OF_BYTES
  Stream #0:4(ita): Subtitle: ass
    Metadata:
      BPS-eng         : 67
      DURATION-eng    : 02:20:10.200000000
      NUMBER_OF_FRAMES-eng: 1221
      NUMBER_OF_BYTES-eng: 71047
      _STATISTICS_WRITING_APP-eng: mkvmerge v40.0.0 ('Old Town Road + Pony') 32-bit
      _STATISTICS_WRITING_DATE_UTC-eng: 2019-12-20 18:54:56
      _STATISTICS_TAGS-eng: BPS DURATION NUMBER_OF_FRAMES NUMBER_OF_BYTES
  Stream #0:5(eng): Subtitle: ass
    Metadata:
      BPS-eng         : 65
      DURATION-eng    : 02:20:10.200000000
      NUMBER_OF_FRAMES-eng: 1216
      NUMBER_OF_BYTES-eng: 69127
      _STATISTICS_WRITING_APP-eng: mkvmerge v40.0.0 ('Old Town Road + Pony') 32-bit
      _STATISTICS_WRITING_DATE_UTC-eng: 2019-12-20 18:54:56
      _STATISTICS_TAGS-eng: BPS DURATION NUMBER_OF_FRAMES NUMBER_OF_BYTES
  Stream #0:6(ita): Subtitle: subrip (default)
    Metadata:
      title           : Forced
      BPS-eng         : 1
      DURATION-eng    : 02:01:06.480000000
      NUMBER_OF_FRAMES-eng: 29
      NUMBER_OF_BYTES-eng: 1250
      _STATISTICS_WRITING_APP-eng: mkvmerge v40.0.0 ('Old Town Road + Pony') 32-bit
      _STATISTICS_WRITING_DATE_UTC-eng: 2019-12-20 18:54:56
      _STATISTICS_TAGS-eng: BPS DURATION NUMBER_OF_FRAMES NUMBER_OF_BYTES
Output #0, hls, to '/config/data/transcodes/8d5add41d5d8ae313c2e1d641e06dbf3.m3u8':
  Metadata:
    encoder         : Lavf59.27.100
  Stream #0:0: Video: hevc (Main 10) (hvc1 / 0x31637668), yuv420p10le(tv, bt2020nc/bt2020/smpte2084), 3840x1608 [SAR 1:1 DAR 160:67], q=2-31, 23.98 fps, 23.98 tbr, 90k tbn (default)
  Stream #0:1: Audio: eac3, 48000 Hz, 5.1(side), fltp, 320 kb/s
Stream mapping:
  Stream #0:0 -> #0:0 (copy)
  Stream #0:1 -> #0:1 (copy)
Press [q] to stop, [?] for help
frame=    1 fps=0.0 q=-1.0 size=N/A time=-00:02:16.38 bitrate=N/A speed=N/A    
[hls @ 0x55df4a363580] Invalid DTS: 12278483 PTS: 12274740 in output stream 0:0, replacing by guess
[hls @ 0x55df4a363580] Non-monotonous DTS in output stream 0:0; previous: 12274794, current: 12271050; changing to 12274795. This may result in incorrect timestamps in the output file.
[hls @ 0x55df4a363580] Non-monotonous DTS in output stream 0:0; previous: 12274795, current: 12274740; changing to 12274796. This may result in incorrect timestamps in the output file.
[hls @ 0x55df4a363580] Opening '/config/data/transcodes/8d5add41d5d8ae313c2e1d641e06dbf316.ts' for writing
frame=  272 fps=0.0 q=-1.0 size=N/A time=00:00:11.32 bitrate=N/A speed=21.4x    
[hls @ 0x55df4a363580] Opening '/config/data/transcodes/8d5add41d5d8ae313c2e1d641e06dbf317.ts' for writing
[hls @ 0x55df4a363580] Opening '/config/data/transcodes/8d5add41d5d8ae313c2e1d641e06dbf318.ts' for writing
frame=  707 fps=680 q=-1.0 size=N/A time=00:00:29.40 bitrate=N/A speed=28.3x    
[hls @ 0x55df4a363580] Opening '/config/data/transcodes/8d5add41d5d8ae313c2e1d641e06dbf319.ts' for writing
frame= 1120 fps=718 q=-1.0 size=N/A time=00:00:46.97 bitrate=N/A speed=30.1x    
[hls @ 0x55df4a363580] Opening '/config/data/transcodes/8d5add41d5d8ae313c2e1d641e06dbf320.ts' for writing
[hls @ 0x55df4a363580] Opening '/config/data/transcodes/8d5add41d5d8ae313c2e1d641e06dbf321.ts' for writing
[hls @ 0x55df4a363580] Opening '/config/data/transcodes/8d5add41d5d8ae313c2e1d641e06dbf322.ts' for writing
frame= 1393 fps=669 q=-1.0 size=N/A time=00:00:58.20 bitrate=N/A speed=  28x    
[hls @ 0x55df4a363580] Opening '/config/data/transcodes/8d5add41d5d8ae313c2e1d641e06dbf323.ts' for writing
[hls @ 0x55df4a363580] Opening '/config/data/transcodes/8d5add41d5d8ae313c2e1d641e06dbf324.ts' for writing
[hls @ 0x55df4a363580] Opening '/config/data/transcodes/8d5add41d5d8ae313c2e1d641e06dbf325.ts' for writing
frame= 1662 fps=634 q=-1.0 size=N/A time=00:01:09.30 bitrate=N/A speed=26.4x    
[hls @ 0x55df4a363580] Opening '/config/data/transcodes/8d5add41d5d8ae313c2e1d641e06dbf326.ts' for writing
frame= 1899 fps=603 q=-1.0 size=N/A time=00:01:19.16 bitrate=N/A speed=25.1x    
[hls @ 0x55df4a363580] Opening '/config/data/transcodes/8d5add41d5d8ae313c2e1d641e06dbf327.ts' for writing
[hls @ 0x55df4a363580] Opening '/config/data/transcodes/8d5add41d5d8ae313c2e1d641e06dbf328.ts' for writing
frame= 2155 fps=589 q=-1.0 size=N/A time=00:01:29.88 bitrate=N/A speed=24.6x    
[hls @ 0x55df4a363580] Opening '/config/data/transcodes/8d5add41d5d8ae313c2e1d641e06dbf329.ts' for writing
[hls @ 0x55df4a363580] Opening '/config/data/transcodes/8d5add41d5d8ae313c2e1d641e06dbf330.ts' for writing
[hls @ 0x55df4a363580] Opening '/config/data/transcodes/8d5add41d5d8ae313c2e1d641e06dbf331.ts' for writing
frame= 2365 fps=567 q=-1.0 size=N/A time=00:01:38.78 bitrate=N/A speed=23.7x    
[hls @ 0x55df4a363580] Opening '/config/data/transcodes/8d5add41d5d8ae313c2e1d641e06dbf332.ts' for writing
[hls @ 0x55df4a363580] Opening '/config/data/transcodes/8d5add41d5d8ae313c2e1d641e06dbf333.ts' for writing
frame= 2696 fps=577 q=-1.0 size=N/A time=00:01:52.50 bitrate=N/A speed=24.1x    
[hls @ 0x55df4a363580] Opening '/config/data/transcodes/8d5add41d5d8ae313c2e1d641e06dbf334.ts' for writing
frame= 3028 fps=581 q=-1.0 size=N/A time=00:02:06.30 bitrate=N/A speed=24.2x    
[hls @ 0x55df4a363580] Opening '/config/data/transcodes/8d5add41d5d8ae313c2e1d641e06dbf335.ts' for writing
frame= 3188 fps=552 q=-1.0 size=N/A time=00:02:13.05 bitrate=N/A speed=  23x    
frame= 3329 fps=528 q=-1.0 size=N/A time=00:02:18.84 bitrate=N/A speed=  22x    
[hls @ 0x55df4a363580] Opening '/config/data/transcodes/8d5add41d5d8ae313c2e1d641e06dbf336.ts' for writing
[hls @ 0x55df4a363580] Opening '/config/data/transcodes/8d5add41d5d8ae313c2e1d641e06dbf337.ts' for writing
frame= 3538 fps=518 q=-1.0 size=N/A time=00:02:27.77 bitrate=N/A speed=21.6x    
[hls @ 0x55df4a363580] Opening '/config/data/transcodes/8d5add41d5d8ae313c2e1d641e06dbf338.ts' for writing
[hls @ 0x55df4a363580] Opening '/config/data/transcodes/8d5add41d5d8ae313c2e1d641e06dbf339.ts' for writing
[hls @ 0x55df4a363580] Opening '/config/data/transcodes/8d5add41d5d8ae313c2e1d641e06dbf340.ts' for writing
frame= 3744 fps=508 q=-1.0 size=N/A time=00:02:36.06 bitrate=N/A speed=21.2x    
[hls @ 0x55df4a363580] Opening '/config/data/transcodes/8d5add41d5d8ae313c2e1d641e06dbf341.ts' for writing
[hls @ 0x55df4a363580] Opening '/config/data/transcodes/8d5add41d5d8ae313c2e1d641e06dbf342.ts' for writing
frame= 4015 fps=509 q=-1.0 size=N/A time=00:02:47.58 bitrate=N/A speed=21.2x    
[hls @ 0x55df4a363580] Opening '/config/data/transcodes/8d5add41d5d8ae313c2e1d641e06dbf343.ts' for writing
frame= 4201 fps=500 q=-1.0 size=N/A time=00:02:55.42 bitrate=N/A speed=20.9x    
frame= 4249 fps=478 q=-1.0 size=N/A time=00:02:57.40 bitrate=N/A speed=19.9x    
frame= 4282 fps=452 q=-1.0 size=N/A time=00:02:58.74 bitrate=N/A speed=18.9x    
frame= 4295 fps=427 q=-1.0 size=N/A time=00:02:59.03 bitrate=N/A speed=17.8x    
frame= 4300 fps=407 q=-1.0 size=N/A time=00:02:59.51 bitrate=N/A speed=  17x    
frame= 4313 fps=390 q=-1.0 size=N/A time=00:03:00.02 bitrate=N/A speed=16.3x    
frame= 4345 fps=376 q=-1.0 size=N/A time=00:03:01.30 bitrate=N/A speed=15.7x    
[hls @ 0x55df4a363580] Opening '/config/data/transcodes/8d5add41d5d8ae313c2e1d641e06dbf344.ts' for writing
frame= 4356 fps=351 q=-1.0 size=N/A time=00:03:01.56 bitrate=N/A speed=14.6x    
frame= 4440 fps=342 q=-1.0 size=N/A time=00:03:05.21 bitrate=N/A speed=14.3x    
[hls @ 0x55df4a363580] Opening '/config/data/transcodes/8d5add41d5d8ae313c2e1d641e06dbf345.ts' for writing
frame= 4597 fps=328 q=-1.0 size=N/A time=00:03:11.64 bitrate=N/A speed=13.7x    
[hls @ 0x55df4a363580] Opening '/config/data/transcodes/8d5add41d5d8ae313c2e1d641e06dbf346.ts' for writing
frame= 4834 fps=320 q=-1.0 size=N/A time=00:03:21.53 bitrate=N/A speed=13.3x    
[hls @ 0x55df4a363580] Opening '/config/data/transcodes/8d5add41d5d8ae313c2e1d641e06dbf347.ts' for writing
frame= 5000 fps=320 q=-1.0 size=N/A time=00:03:28.47 bitrate=N/A speed=13.3x    
[hls @ 0x55df4a363580] Opening '/config/data/transcodes/8d5add41d5d8ae313c2e1d641e06dbf348.ts' for writing
frame= 5165 fps=320 q=-1.0 size=N/A time=00:03:35.64 bitrate=N/A speed=13.4x    
[hls @ 0x55df4a363580] Opening '/config/data/transcodes/8d5add41d5d8ae313c2e1d641e06dbf349.ts' for writing
frame= 5274 fps=317 q=-1.0 size=N/A time=00:03:40.06 bitrate=N/A speed=13.2x    
[hls @ 0x55df4a363580] Opening '/config/data/transcodes/8d5add41d5d8ae313c2e1d641e06dbf350.ts' for writing
[hls @ 0x55df4a363580] Opening '/config/data/transcodes/8d5add41d5d8ae313c2e1d641e06dbf351.ts' for writing
frame= 5406 fps=314 q=-1.0 size=N/A time=00:03:45.37 bitrate=N/A speed=13.1x    
[hls @ 0x55df4a363580] Opening '/config/data/transcodes/8d5add41d5d8ae313c2e1d641e06dbf352.ts' for writing
frame= 5552 fps=313 q=-1.0 size=N/A time=00:03:51.67 bitrate=N/A speed=13.1x    
frame= 5668 fps=311 q=-1.0 size=N/A time=00:03:56.44 bitrate=N/A speed=  13x    
[hls @ 0x55df4a363580] Opening '/config/data/transcodes/8d5add41d5d8ae313c2e1d641e06dbf353.ts' for writing
frame= 5699 fps=302 q=-1.0 size=N/A time=00:03:57.59 bitrate=N/A speed=12.6x    
[hls @ 0x55df4a363580] Opening '/config/data/transcodes/8d5add41d5d8ae313c2e1d641e06dbf354.ts' for writing
frame= 5828 fps=299 q=-1.0 size=N/A time=00:04:02.97 bitrate=N/A speed=12.5x    
[hls @ 0x55df4a363580] Opening '/config/data/transcodes/8d5add41d5d8ae313c2e1d641e06dbf355.ts' for writing
[hls @ 0x55df4a363580] Opening '/config/data/transcodes/8d5add41d5d8ae313c2e1d641e06dbf356.ts' for writing
frame= 6117 fps=304 q=-1.0 size=N/A time=00:04:15.03 bitrate=N/A speed=12.7x    
[hls @ 0x55df4a363580] Opening '/config/data/transcodes/8d5add41d5d8ae313c2e1d641e06dbf357.ts' for writing
[hls @ 0x55df4a363580] Opening '/config/data/transcodes/8d5add41d5d8ae313c2e1d641e06dbf358.ts' for writing
frame= 6340 fps=306 q=-1.0 size=N/A time=00:04:24.31 bitrate=N/A speed=12.8x    
[hls @ 0x55df4a363580] Opening '/config/data/transcodes/8d5add41d5d8ae313c2e1d641e06dbf359.ts' for writing
[hls @ 0x55df4a363580] Opening '/config/data/transcodes/8d5add41d5d8ae313c2e1d641e06dbf360.ts' for writing
frame= 6591 fps=311 q=-1.0 size=N/A time=00:04:34.90 bitrate=N/A speed=  13x    
[hls @ 0x55df4a363580] Opening '/config/data/transcodes/8d5add41d5d8ae313c2e1d641e06dbf361.ts' for writing
frame= 6698 fps=309 q=-1.0 size=N/A time=00:04:39.48 bitrate=N/A speed=12.9x    
[hls @ 0x55df4a363580] Opening '/config/data/transcodes/8d5add41d5d8ae313c2e1d641e06dbf362.ts' for writing
[hls @ 0x55df4a363580] Opening '/config/data/transcodes/8d5add41d5d8ae313c2e1d641e06dbf363.ts' for writing
frame= 7065 fps=318 q=-1.0 size=N/A time=00:04:54.81 bitrate=N/A speed=13.3x    
frame= 7213 fps=317 q=-1.0 size=N/A time=00:05:00.82 bitrate=N/A speed=13.2x    
[hls @ 0x55df4a363580] Opening '/config/data/transcodes/8d5add41d5d8ae313c2e1d641e06dbf364.ts' for writing
frame= 7225 fps=299 q=-1.0 size=N/A time=00:05:01.37 bitrate=N/A speed=12.5x    
frame= 7325 fps=297 q=-1.0 size=N/A time=00:05:05.53 bitrate=N/A speed=12.4x    
frame= 7393 fps=294 q=-1.0 size=N/A time=00:05:08.38 bitrate=N/A speed=12.3x    
[hls @ 0x55df4a363580] Opening '/config/data/transcodes/8d5add41d5d8ae313c2e1d641e06dbf365.ts' for writing
frame= 7431 fps=281 q=-1.0 size=N/A time=00:05:09.82 bitrate=N/A speed=11.7x    
[hls @ 0x55df4a363580] Opening '/config/data/transcodes/8d5add41d5d8ae313c2e1d641e06dbf366.ts' for writing
frame= 7606 fps=280 q=-1.0 size=N/A time=00:05:17.11 bitrate=N/A speed=11.7x    
[hls @ 0x55df4a363580] Opening '/config/data/transcodes/8d5add41d5d8ae313c2e1d641e06dbf367.ts' for writing
frame= 7723 fps=279 q=-1.0 size=N/A time=00:05:22.14 bitrate=N/A speed=11.6x    
frame= 7927 fps=281 q=-1.0 size=N/A time=00:05:30.58 bitrate=N/A speed=11.7x    
[hls @ 0x55df4a363580] Opening '/config/data/transcodes/8d5add41d5d8ae313c2e1d641e06dbf368.ts' for writing
frame= 7931 fps=275 q=-1.0 size=N/A time=00:05:30.74 bitrate=N/A speed=11.5x    
frame= 8099 fps=276 q=-1.0 size=N/A time=00:05:37.82 bitrate=N/A speed=11.5x    
[hls @ 0x55df4a363580] Opening '/config/data/transcodes/8d5add41d5d8ae313c2e1d641e06dbf369.ts' for writing
frame= 8179 fps=270 q=-1.0 size=N/A time=00:05:41.18 bitrate=N/A speed=11.3x    
[hls @ 0x55df4a363580] Opening '/config/data/transcodes/8d5add41d5d8ae313c2e1d641e06dbf370.ts' for writing
frame= 8347 fps=271 q=-1.0 size=N/A time=00:05:48.18 bitrate=N/A speed=11.3x    
[hls @ 0x55df4a363580] Opening '/config/data/transcodes/8d5add41d5d8ae313c2e1d641e06dbf371.ts' for writing
frame= 8490 fps=269 q=-1.0 size=N/A time=00:05:54.01 bitrate=N/A speed=11.2x    
[hls @ 0x55df4a363580] Opening '/config/data/transcodes/8d5add41d5d8ae313c2e1d641e06dbf372.ts' for writing
frame= 8618 fps=268 q=-1.0 size=N/A time=00:05:59.35 bitrate=N/A speed=11.2x    
[hls @ 0x55df4a363580] Opening '/config/data/transcodes/8d5add41d5d8ae313c2e1d641e06dbf373.ts' for writing
[hls @ 0x55df4a363580] Opening '/config/data/transcodes/8d5add41d5d8ae313c2e1d641e06dbf374.ts' for writing
frame= 8767 fps=268 q=-1.0 size=N/A time=00:06:05.56 bitrate=N/A speed=11.2x    
[hls @ 0x55df4a363580] Opening '/config/data/transcodes/8d5add41d5d8ae313c2e1d641e06dbf375.ts' for writing
frame= 8946 fps=269 q=-1.0 size=N/A time=00:06:13.18 bitrate=N/A speed=11.2x    
[hls @ 0x55df4a363580] Opening '/config/data/transcodes/8d5add41d5d8ae313c2e1d641e06dbf376.ts' for writing
frame= 9026 fps=264 q=-1.0 size=N/A time=00:06:16.34 bitrate=N/A speed=  11x    
frame= 9109 fps=263 q=-1.0 size=N/A time=00:06:19.99 bitrate=N/A speed=  11x    
frame= 9233 fps=263 q=-1.0 size=N/A time=00:06:25.05 bitrate=N/A speed=  11x    
[hls @ 0x55df4a363580] Opening '/config/data/transcodes/8d5add41d5d8ae313c2e1d641e06dbf377.ts' for writing
frame= 9261 fps=257 q=-1.0 size=N/A time=00:06:26.17 bitrate=N/A speed=10.7x    
[hls @ 0x55df4a363580] Opening '/config/data/transcodes/8d5add41d5d8ae313c2e1d641e06dbf378.ts' for writing
[hls @ 0x55df4a363580] Opening '/config/data/transcodes/8d5add41d5d8ae313c2e1d641e06dbf379.ts' for writing
frame= 9450 fps=258 q=-1.0 size=N/A time=00:06:34.04 bitrate=N/A speed=10.8x    
[hls @ 0x55df4a363580] Opening '/config/data/transcodes/8d5add41d5d8ae313c2e1d641e06dbf380.ts' for writing
[hls @ 0x55df4a363580] Opening '/config/data/transcodes/8d5add41d5d8ae313c2e1d641e06dbf381.ts' for writing
frame= 9660 fps=259 q=-1.0 size=N/A time=00:06:42.81 bitrate=N/A speed=10.8x    
[hls @ 0x55df4a363580] Opening '/config/data/transcodes/8d5add41d5d8ae313c2e1d641e06dbf382.ts' for writing
frame= 9816 fps=260 q=-1.0 size=N/A time=00:06:49.59 bitrate=N/A speed=10.8x    
[hls @ 0x55df4a363580] Opening '/config/data/transcodes/8d5add41d5d8ae313c2e1d641e06dbf383.ts' for writing
frame= 9848 fps=255 q=-1.0 size=N/A time=00:06:50.65 bitrate=N/A speed=10.6x    
[hls @ 0x55df4a363580] Opening '/config/data/transcodes/8d5add41d5d8ae313c2e1d641e06dbf384.ts' for writing
frame= 9981 fps=254 q=-1.0 size=N/A time=00:06:56.18 bitrate=N/A speed=10.6x    
frame=10147 fps=255 q=-1.0 size=N/A time=00:07:03.38 bitrate=N/A speed=10.6x    
[hls @ 0x55df4a363580] Opening '/config/data/transcodes/8d5add41d5d8ae313c2e1d641e06dbf385.ts' for writing
frame=10299 fps=243 q=-1.0 size=N/A time=00:07:09.46 bitrate=N/A speed=10.2x    
[hls @ 0x55df4a363580] Opening '/config/data/transcodes/8d5add41d5d8ae313c2e1d641e06dbf386.ts' for writing
frame=10380 fps=241 q=-1.0 size=N/A time=00:07:12.82 bitrate=N/A speed=10.1x    
[hls @ 0x55df4a363580] Opening '/config/data/transcodes/8d5add41d5d8ae313c2e1d641e06dbf387.ts' for writing
frame=10482 fps=241 q=-1.0 size=N/A time=00:07:17.27 bitrate=N/A speed=10.1x    
[hls @ 0x55df4a363580] Opening '/config/data/transcodes/8d5add41d5d8ae313c2e1d641e06dbf388.ts' for writing
frame=10512 fps=237 q=-1.0 size=N/A time=00:07:18.33 bitrate=N/A speed= 9.9x    
frame=10674 fps=238 q=-1.0 size=N/A time=00:07:25.50 bitrate=N/A speed=9.94x    
[hls @ 0x55df4a363580] Opening '/config/data/transcodes/8d5add41d5d8ae313c2e1d641e06dbf389.ts' for writing
frame=10824 fps=239 q=-1.0 size=N/A time=00:07:31.48 bitrate=N/A speed=9.97x    
[hls @ 0x55df4a363580] Opening '/config/data/transcodes/8d5add41d5d8ae313c2e1d641e06dbf390.ts' for writing
frame=10964 fps=235 q=-1.0 size=N/A time=00:07:37.27 bitrate=N/A speed= 9.8x    
frame=11091 fps=235 q=-1.0 size=N/A time=00:07:42.52 bitrate=N/A speed= 9.8x    
[hls @ 0x55df4a363580] Opening '/config/data/transcodes/8d5add41d5d8ae313c2e1d641e06dbf391.ts' for writing
frame=11131 fps=230 q=-1.0 size=N/A time=00:07:44.15 bitrate=N/A speed=9.58x    
[hls @ 0x55df4a363580] Opening '/config/data/transcodes/8d5add41d5d8ae313c2e1d641e06dbf392.ts' for writing
frame=11344 fps=232 q=-1.0 size=N/A time=00:07:53.18 bitrate=N/A speed=9.67x    
[hls @ 0x55df4a363580] Opening '/config/data/transcodes/8d5add41d5d8ae313c2e1d641e06dbf393.ts' for writing
frame=11400 fps=230 q=-1.0 size=N/A time=00:07:55.51 bitrate=N/A speed=9.61x    
[hls @ 0x55df4a363580] Opening '/config/data/transcodes/8d5add41d5d8ae313c2e1d641e06dbf394.ts' for writing
frame=11648 fps=231 q=-1.0 size=N/A time=00:08:05.69 bitrate=N/A speed=9.64x    
frame=11815 fps=232 q=-1.0 size=N/A time=00:08:12.95 bitrate=N/A speed=9.69x    
[hls @ 0x55df4a363580] Opening '/config/data/transcodes/8d5add41d5d8ae313c2e1d641e06dbf395.ts' for writing
frame=11895 fps=226 q=-1.0 size=N/A time=00:08:16.12 bitrate=N/A speed=9.42x    
[hls @ 0x55df4a363580] Opening '/config/data/transcodes/8d5add41d5d8ae313c2e1d641e06dbf396.ts' for writing
frame=12084 fps=226 q=-1.0 size=N/A time=00:08:23.90 bitrate=N/A speed=9.42x    
[hls @ 0x55df4a363580] Opening '/config/data/transcodes/8d5add41d5d8ae313c2e1d641e06dbf397.ts' for writing
frame=12255 fps=227 q=-1.0 size=N/A time=00:08:31.19 bitrate=N/A speed=9.46x    
[hls @ 0x55df4a363580] Opening '/config/data/transcodes/8d5add41d5d8ae313c2e1d641e06dbf398.ts' for writing
frame=12296 fps=224 q=-1.0 size=N/A time=00:08:32.73 bitrate=N/A speed=9.35x    
frame=12488 fps=226 q=-1.0 size=N/A time=00:08:40.89 bitrate=N/A speed=9.41x    
[hls @ 0x55df4a363580] Opening '/config/data/transcodes/8d5add41d5d8ae313c2e1d641e06dbf399.ts' for writing
frame=12543 fps=224 q=-1.0 size=N/A time=00:08:43.13 bitrate=N/A speed=9.34x    
frame=12750 fps=226 q=-1.0 size=N/A time=00:08:51.93 bitrate=N/A speed=9.41x    
[hls @ 0x55df4a363580] Opening '/config/data/transcodes/8d5add41d5d8ae313c2e1d641e06dbf3100.ts' for writing
frame=12795 fps=224 q=-1.0 size=N/A time=00:08:53.56 bitrate=N/A speed=9.35x    
[hls @ 0x55df4a363580] Opening '/config/data/transcodes/8d5add41d5d8ae313c2e1d641e06dbf3101.ts' for writing
frame=12883 fps=224 q=-1.0 size=N/A time=00:08:57.21 bitrate=N/A speed=9.32x    
[hls @ 0x55df4a363580] Opening '/config/data/transcodes/8d5add41d5d8ae313c2e1d641e06dbf3102.ts' for writing
[hls @ 0x55df4a363580] Opening '/config/data/transcodes/8d5add41d5d8ae313c2e1d641e06dbf3103.ts' for writing
frame=13055 fps=224 q=-1.0 size=N/A time=00:09:04.41 bitrate=N/A speed=9.35x    
[hls @ 0x55df4a363580] Opening '/config/data/transcodes/8d5add41d5d8ae313c2e1d641e06dbf3104.ts' for writing
frame=13198 fps=225 q=-1.0 size=N/A time=00:09:10.65 bitrate=N/A speed=9.38x    
[hls @ 0x55df4a363580] Opening '/config/data/transcodes/8d5add41d5d8ae313c2e1d641e06dbf3105.ts' for writing
frame=13401 fps=225 q=-1.0 size=N/A time=00:09:19.00 bitrate=N/A speed=9.38x    
[hls @ 0x55df4a363580] Opening '/config/data/transcodes/8d5add41d5d8ae313c2e1d641e06dbf3106.ts' for writing
frame=13652 fps=226 q=-1.0 size=N/A time=00:09:29.43 bitrate=N/A speed=9.42x    
[hls @ 0x55df4a363580] Opening '/config/data/transcodes/8d5add41d5d8ae313c2e1d641e06dbf3107.ts' for writing


[q] command received. Exiting.

[hls @ 0x55df4a363580] Opening '/config/data/transcodes/8d5add41d5d8ae313c2e1d641e06dbf3108.ts' for writing
frame=13696 fps=226 q=-1.0 Lsize=N/A time=00:09:31.10 bitrate=N/A speed=9.43x    
video:651571kB audio:22306kB subtitle:0kB other streams:0kB global headers:2kB muxing overhead: unknown